<svg version="1.1" id="Layer_1" xmlns="http://www.w3.org/2000/svg" xmlns:xlink="http://www.w3.org/1999/xlink" x="0px" y="0px"
	 width="100%" viewBox="0 0 310 310" enable-background="new 0 0 310 310" xml:space="preserve">
<path fill="#5A762E" opacity="1.000000" stroke="none" 
	d="
M1.000000,272.000000 
	C1.000000,194.979111 1.000000,117.958214 1.386104,40.522919 
	C2.301688,38.634941 2.556109,36.974148 3.409156,35.720791 
	C6.767266,30.786819 9.980118,25.692913 13.866382,21.193438 
	C20.073275,14.007159 27.569340,8.421340 36.597305,5.018487 
	C39.199989,4.037473 41.539715,2.358811 44.000000,1.000000 
	C118.354225,1.000000 192.708450,1.000000 267.480713,1.391579 
	C270.998627,2.916153 274.273743,3.715992 277.168549,5.238798 
	C290.989960,12.509489 301.702393,22.977829 308.940765,36.902699 
	C309.509308,37.996414 310.308197,38.970379 311.000000,40.000000 
	C311.000000,117.020897 311.000000,194.041794 310.614380,271.475952 
	C309.686401,273.362610 309.407349,275.013519 308.554901,276.277863 
	C305.293060,281.115814 302.216217,286.153870 298.385468,290.515778 
	C292.176331,297.585846 284.849915,303.329041 275.889252,306.776520 
	C273.126801,307.839355 270.622498,309.573334 268.000000,311.000000 
	C193.645767,311.000000 119.291542,311.000000 44.518440,310.608337 
	C40.405258,308.784576 36.480030,307.764465 33.058109,305.846436 
	C20.669222,298.902222 10.924265,289.165771 3.781371,276.862457 
	C2.843871,275.247650 1.926627,273.621094 1.000000,272.000000 
M92.262047,238.617477 
	C93.594795,242.905319 95.111626,247.146225 96.219254,251.491455 
	C98.110306,258.910126 102.033859,264.916321 109.378464,267.270935 
	C117.878822,269.996033 126.623375,272.400238 135.444473,273.588379 
	C151.668533,275.773621 163.808960,268.871674 172.202499,254.909134 
	C176.396957,247.931717 180.787003,241.054016 185.430664,234.368805 
	C191.893890,225.064087 193.947845,214.603928 194.010544,203.616653 
	C194.019211,202.098892 192.523621,199.456512 191.370636,199.242737 
	C186.556549,198.350052 181.609283,197.854691 176.707321,197.826355 
	C167.715134,197.774399 158.717102,198.391891 149.728149,198.263763 
	C144.630997,198.191086 139.369339,197.827118 134.497940,196.464249 
	C126.786911,194.306870 120.170708,188.898346 111.520607,189.211517 
	C106.068825,189.408905 100.581909,188.647552 95.111374,188.306274 
	C93.810143,188.225113 92.362617,188.440643 91.237198,187.943207 
	C86.303162,185.762360 85.439095,186.245041 85.591194,191.561157 
	C85.634026,193.058136 85.691208,194.565414 85.901642,196.045227 
	C87.886261,210.001785 89.905502,223.953430 92.262047,238.617477 
M246.907257,85.835526 
	C248.363556,89.986679 250.829575,94.077530 251.081787,98.300591 
	C251.765015,109.740433 251.936920,121.252647 251.503067,132.705536 
	C251.075058,144.004288 249.508224,155.256393 248.812363,166.551834 
	C248.689407,168.547852 250.388168,170.656113 251.245682,172.712540 
	C252.140076,170.850296 253.573639,169.059128 253.830139,167.112823 
	C254.677750,160.681305 255.362091,154.204742 255.633423,147.725555 
	C256.266907,132.597763 256.917145,117.459953 256.998169,102.323189 
	C257.061279,90.528107 252.305084,80.353119 243.625702,72.458061 
	C241.391769,70.426003 236.821198,68.742233 234.278839,69.630669 
	C217.988312,75.323471 203.720352,84.074905 193.460007,98.596771 
	C187.617645,106.865677 180.896378,114.508896 174.704468,122.536880 
	C169.021927,129.904449 163.419907,137.340408 158.047028,144.933487 
	C157.278015,146.020233 157.998184,148.160721 158.029175,149.813538 
	C159.473373,149.063522 161.372147,148.665909 162.277466,147.498138 
	C165.122742,143.828064 167.350189,139.671829 170.257919,136.058792 
	C178.079681,126.339653 186.943924,117.353928 193.891342,107.062454 
	C203.351929,93.048134 215.018356,82.476852 230.826736,76.328453 
	C237.212311,73.844902 239.893646,74.154968 243.820679,79.871132 
	C244.939713,81.500000 245.690994,83.381500 246.907257,85.835526 
M53.445011,96.042213 
	C54.586834,94.611107 55.755737,93.200676 56.866085,91.745552 
	C64.061005,82.316528 71.397034,73.137955 82.879662,68.380043 
	C89.782127,65.519966 92.891785,66.179901 97.448181,72.158119 
	C101.469994,77.434952 105.975822,82.352089 109.852745,87.727509 
	C113.611328,92.938850 117.990852,98.138657 120.013023,104.055939 
	C122.558510,111.504509 122.981834,119.677391 124.331039,127.536003 
	C125.200356,132.599487 125.904358,137.704453 127.114693,142.685791 
	C127.372284,143.745972 129.503204,144.350983 130.771057,145.165695 
	C131.184662,143.922913 132.117233,142.595810 131.931152,141.450470 
	C130.176392,130.650513 127.950424,119.920555 126.444122,109.089218 
	C125.520668,102.448898 123.485161,96.452560 119.367294,91.246391 
	C112.773323,82.909729 106.116661,74.618454 99.301117,66.462914 
	C95.605774,62.041039 90.594917,59.435101 85.133659,62.207962 
	C77.793777,65.934669 69.340210,69.282951 64.242172,75.251480 
	C51.649857,89.993904 40.686619,106.128937 29.106787,121.732567 
	C28.323957,122.787422 27.508247,124.028427 27.331532,125.271523 
	C27.087029,126.991470 27.434845,128.795609 27.529015,130.563705 
	C28.904150,129.664169 30.309036,128.805435 31.634941,127.838409 
	C31.998028,127.573601 32.083733,126.956146 32.365269,126.547775 
	C39.246307,116.567253 46.136616,106.593117 53.445011,96.042213 
z"/>
<path fill="#000000" opacity="1.000000" stroke="none" 
	d="
M43.531342,1.000000 
	C41.539715,2.358811 39.199989,4.037473 36.597305,5.018487 
	C27.569340,8.421340 20.073275,14.007159 13.866382,21.193438 
	C9.980118,25.692913 6.767266,30.786819 3.409156,35.720791 
	C2.556109,36.974148 2.301688,38.634941 1.386104,40.054260 
	C1.000000,27.069756 1.000000,14.139512 1.000000,1.000000 
	C15.020201,1.000000 29.041443,1.000000 43.531342,1.000000 
z"/>
<path fill="#000000" opacity="1.000000" stroke="none" 
	d="
M268.468658,311.000000 
	C270.622498,309.573334 273.126801,307.839355 275.889252,306.776520 
	C284.849915,303.329041 292.176331,297.585846 298.385468,290.515778 
	C302.216217,286.153870 305.293060,281.115814 308.554901,276.277863 
	C309.407349,275.013519 309.686401,273.362610 310.614380,271.944611 
	C311.000000,284.930237 311.000000,297.860504 311.000000,311.000000 
	C296.979797,311.000000 282.958557,311.000000 268.468658,311.000000 
z"/>
<path fill="#000000" opacity="1.000000" stroke="none" 
	d="
M311.000000,39.531342 
	C310.308197,38.970379 309.509308,37.996414 308.940765,36.902699 
	C301.702393,22.977829 290.989960,12.509489 277.168549,5.238798 
	C274.273743,3.715992 270.998627,2.916153 267.949371,1.391579 
	C282.256439,1.000000 296.512848,1.000000 311.000000,1.000000 
	C311.000000,13.686629 311.000000,26.374657 311.000000,39.531342 
z"/>
<path fill="#000000" opacity="1.000000" stroke="none" 
	d="
M1.000000,272.468658 
	C1.926627,273.621094 2.843871,275.247650 3.781371,276.862457 
	C10.924265,289.165771 20.669222,298.902222 33.058109,305.846436 
	C36.480030,307.764465 40.405258,308.784576 44.049782,310.608337 
	C29.743578,311.000000 15.487154,311.000000 1.000000,311.000000 
	C1.000000,298.313385 1.000000,285.625336 1.000000,272.468658 
z"/>
<path fill="#E9EDE3" opacity="1.000000" stroke="none" 
	d="
M92.088409,238.261978 
	C89.905502,223.953430 87.886261,210.001785 85.901642,196.045227 
	C85.691208,194.565414 85.634026,193.058136 85.591194,191.561157 
	C85.439095,186.245041 86.303162,185.762360 91.237198,187.943207 
	C92.362617,188.440643 93.810143,188.225113 95.111374,188.306274 
	C100.581909,188.647552 106.068825,189.408905 111.520607,189.211517 
	C120.170708,188.898346 126.786911,194.306870 134.497940,196.464249 
	C139.369339,197.827118 144.630997,198.191086 149.728149,198.263763 
	C158.717102,198.391891 167.715134,197.774399 176.707321,197.826355 
	C181.609283,197.854691 186.556549,198.350052 191.370636,199.242737 
	C192.523621,199.456512 194.019211,202.098892 194.010544,203.616653 
	C193.947845,214.603928 191.893890,225.064087 185.430664,234.368805 
	C180.787003,241.054016 176.396957,247.931717 172.202499,254.909134 
	C163.808960,268.871674 151.668533,275.773621 135.444473,273.588379 
	C126.623375,272.400238 117.878822,269.996033 109.378464,267.270935 
	C102.033859,264.916321 98.110306,258.910126 96.219254,251.491455 
	C95.111626,247.146225 93.594795,242.905319 92.088409,238.261978 
M93.359749,220.760742 
	C96.302643,231.457764 98.797554,242.310547 102.432968,252.766800 
	C103.694359,256.394836 107.218292,260.281372 110.701981,261.864777 
	C117.107010,264.776031 124.152000,266.548676 131.101685,267.938873 
	C148.078415,271.334778 159.766449,265.812775 168.625900,251.121384 
	C172.570724,244.579758 177.326752,238.483643 180.806976,231.718414 
	C183.943283,225.621704 186.658386,219.060043 188.065674,212.388382 
	C189.632812,204.958923 187.493500,202.987778 179.561707,202.965332 
	C169.245102,202.936127 158.892212,204.028168 148.621307,203.452835 
	C141.119858,203.032639 132.992645,202.161026 126.453484,198.880844 
	C116.380356,193.827972 106.046776,193.772385 95.501381,193.433624 
	C92.270714,193.329849 90.776985,194.939972 91.213844,198.501724 
	C92.084618,205.601151 92.606483,212.743347 93.359749,220.760742 
z"/>
<path fill="#E8ECE2" opacity="1.000000" stroke="none" 
	d="
M246.759094,85.491341 
	C245.690994,83.381500 244.939713,81.500000 243.820679,79.871132 
	C239.893646,74.154968 237.212311,73.844902 230.826736,76.328453 
	C215.018356,82.476852 203.351929,93.048134 193.891342,107.062454 
	C186.943924,117.353928 178.079681,126.339653 170.257919,136.058792 
	C167.350189,139.671829 165.122742,143.828064 162.277466,147.498138 
	C161.372147,148.665909 159.473373,149.063522 158.029175,149.813538 
	C157.998184,148.160721 157.278015,146.020233 158.047028,144.933487 
	C163.419907,137.340408 169.021927,129.904449 174.704468,122.536880 
	C180.896378,114.508896 187.617645,106.865677 193.460007,98.596771 
	C203.720352,84.074905 217.988312,75.323471 234.278839,69.630669 
	C236.821198,68.742233 241.391769,70.426003 243.625702,72.458061 
	C252.305084,80.353119 257.061279,90.528107 256.998169,102.323189 
	C256.917145,117.459953 256.266907,132.597763 255.633423,147.725555 
	C255.362091,154.204742 254.677750,160.681305 253.830139,167.112823 
	C253.573639,169.059128 252.140076,170.850296 251.245682,172.712540 
	C250.388168,170.656113 248.689407,168.547852 248.812363,166.551834 
	C249.508224,155.256393 251.075058,144.004288 251.503067,132.705536 
	C251.936920,121.252647 251.765015,109.740433 251.081787,98.300591 
	C250.829575,94.077530 248.363556,89.986679 246.759094,85.491341 
z"/>
<path fill="#E9ECE3" opacity="1.000000" stroke="none" 
	d="
M53.235138,96.330025 
	C46.136616,106.593117 39.246307,116.567253 32.365269,126.547775 
	C32.083733,126.956146 31.998028,127.573601 31.634941,127.838409 
	C30.309036,128.805435 28.904150,129.664169 27.529015,130.563705 
	C27.434845,128.795609 27.087029,126.991470 27.331532,125.271523 
	C27.508247,124.028427 28.323957,122.787422 29.106787,121.732567 
	C40.686619,106.128937 51.649857,89.993904 64.242172,75.251480 
	C69.340210,69.282951 77.793777,65.934669 85.133659,62.207962 
	C90.594917,59.435101 95.605774,62.041039 99.301117,66.462914 
	C106.116661,74.618454 112.773323,82.909729 119.367294,91.246391 
	C123.485161,96.452560 125.520668,102.448898 126.444122,109.089218 
	C127.950424,119.920555 130.176392,130.650513 131.931152,141.450470 
	C132.117233,142.595810 131.184662,143.922913 130.771057,145.165695 
	C129.503204,144.350983 127.372284,143.745972 127.114693,142.685791 
	C125.904358,137.704453 125.200356,132.599487 124.331039,127.536003 
	C122.981834,119.677391 122.558510,111.504509 120.013023,104.055939 
	C117.990852,98.138657 113.611328,92.938850 109.852745,87.727509 
	C105.975822,82.352089 101.469994,77.434952 97.448181,72.158119 
	C92.891785,66.179901 89.782127,65.519966 82.879662,68.380043 
	C71.397034,73.137955 64.061005,82.316528 56.866085,91.745552 
	C55.755737,93.200676 54.586834,94.611107 53.235138,96.330025 
z"/>
<path fill="#5C7730" opacity="1.000000" stroke="none" 
	d="
M93.316116,220.314316 
	C92.606483,212.743347 92.084618,205.601151 91.213844,198.501724 
	C90.776985,194.939972 92.270714,193.329849 95.501381,193.433624 
	C106.046776,193.772385 116.380356,193.827972 126.453484,198.880844 
	C132.992645,202.161026 141.119858,203.032639 148.621307,203.452835 
	C158.892212,204.028168 169.245102,202.936127 179.561707,202.965332 
	C187.493500,202.987778 189.632812,204.958923 188.065674,212.388382 
	C186.658386,219.060043 183.943283,225.621704 180.806976,231.718414 
	C177.326752,238.483643 172.570724,244.579758 168.625900,251.121384 
	C159.766449,265.812775 148.078415,271.334778 131.101685,267.938873 
	C124.152000,266.548676 117.107010,264.776031 110.701981,261.864777 
	C107.218292,260.281372 103.694359,256.394836 102.432968,252.766800 
	C98.797554,242.310547 96.302643,231.457764 93.316116,220.314316 
z"/>
</svg>